<?xml version="1.0" encoding="UTF-8" standalone="no"?>
<svg
   xmlns:dc="http://purl.org/dc/elements/1.1/"
   xmlns:cc="http://creativecommons.org/ns#"
   xmlns:rdf="http://www.w3.org/1999/02/22-rdf-syntax-ns#"
   xmlns:svg="http://www.w3.org/2000/svg"
   xmlns="http://www.w3.org/2000/svg"
   xmlns:sodipodi="http://sodipodi.sourceforge.net/DTD/sodipodi-0.dtd"
   xmlns:inkscape="http://www.inkscape.org/namespaces/inkscape"
   inkscape:version="0.92.4 (f8dce91, 2019-08-02)"
   sodipodi:docname="unique-logo.svg"
   viewBox="0 0 752 846.66669"
   height="846.66669"
   width="752"
   xml:space="preserve"
   id="svg833"
   version="1.1"><metadata
     id="metadata839"><rdf:RDF><cc:Work
         rdf:about=""><dc:format>image/svg+xml</dc:format><dc:type
           rdf:resource="http://purl.org/dc/dcmitype/StillImage" /><dc:title></dc:title></cc:Work></rdf:RDF></metadata><defs
     id="defs837"><clipPath
       id="clipPath851"
       clipPathUnits="userSpaceOnUse"><path
         inkscape:connector-curvature="0"
         id="path849"
         clip-rule="evenodd"
         d="m 3201.88,6187.14 c 455.08,-338.3 271,-810.87 596.69,-1150.94 82.72,-86.13 178.31,-129.66 275.57,-194.99 226.65,-152.14 -115.53,-196.6 -72.5,-328.29 16.13,-49.47 53.28,-107.78 100.21,-132.81 48.28,-25.73 61.87,-71.25 37.29,-122.21 -26.17,-54.28 -88.91,-83.84 -147.78,-93.64 57.92,-5.99 100.14,-32.17 112.78,-90.99 19.59,-91.31 -104.97,-101.7 -104.1,-197.16 1.16,-132.41 192.75,-262.88 61.96,-394.46 -191.24,-192.41 -545.03,-56.58 -785.11,-95.87 -339.16,-55.59 -414.78,-286.82 -578.73,-540.57 -153.71,14.2 -306.97,50.02 -455.37,109.35 l 0.1,5.66 c 0,102.18 -82.88,185.06 -185.08,185.06 -102.2,0 -185.08,-82.88 -185.08,-185.06 0,-102.2 82.88,-185.1 185.08,-185.1 55.26,0 104.86,24.24 138.79,62.67 128.99,-51.9 267,-89.65 412.97,-110.79 504.95,-73.15 991.45,69.06 1366.83,356.81 337.49,239.75 593.55,596.91 690.76,1037.08 82.34,372.76 38.11,744.41 -104.15,1071.25 -231.35,587.66 -762.52,1037.83 -1432,1134.8 -606.29,87.82 -1185.99,-134.18 -1578.66,-546.52 h -3.24 v -3.45 c -39.32,-41.54 -76.82,-84.95 -112.22,-130.2 l 1642.45,0.89 c 33.72,-45.5 87.8,-75 148.79,-75 102.19,0 185.07,82.89 185.07,185.09 0,102.19 -82.88,185.06 -185.07,185.06 -94.53,0 -172.51,-70.88 -183.69,-162.39 H 1736 c 361.76,326.51 860.27,496.87 1376.96,422.03 29.96,-4.35 59.59,-9.49 88.92,-15.31 z M 2678.59,3606.01 c 102.2,0 185.09,-82.88 185.09,-185.07 0,-102.2 -82.89,-185.1 -185.09,-185.1 -78.8,0 -146.11,49.29 -172.8,118.72 h -849.61 l 1.27,-1.35 -164.1,-1.52 c -176.5,212.06 -304.37,471.33 -374.28,736.88 l 55.48,-0.44 v 0.78 h 1786.44 c 26.1,70.56 94.01,120.91 173.65,120.91 102.2,0 185.08,-82.89 185.08,-185.07 0,-102.2 -82.88,-185.09 -185.08,-185.09 -77.97,0 -144.69,48.22 -171.95,116.49 H 1292.08 c 60.44,-166.77 145.03,-326.71 252.24,-468.83 h 961.48 c 26.7,69.41 93.99,118.69 172.79,118.69 z m 972.5,1153.19 c 102.2,0 185.08,-82.88 185.08,-185.07 0,-102.2 -82.88,-185.1 -185.08,-185.1 -78.81,0 -146.12,49.29 -172.81,118.72 l -2420.23,0.37 c -5.28,235.08 35.01,473.43 126.65,701.5 l 1652.23,-2.67 c 26.71,69.4 93.99,118.68 172.8,118.68 102.2,0 185.08,-82.88 185.08,-185.06 0,-102.2 -82.88,-185.09 -185.08,-185.09 -78.81,0 -146.12,49.27 -172.81,118.7 H 1269.2 c -48.18,-142.22 -75.68,-288.01 -84.04,-433.67 h 2293.13 c 26.7,69.41 93.99,118.69 172.8,118.69 z" /></clipPath><linearGradient
       id="linearGradient857"
       spreadMethod="pad"
       gradientTransform="matrix(9.76447,-2.15758,2.15758,9.76447,2923.64,4505.97)"
       gradientUnits="userSpaceOnUse"
       y2="0"
       x2="181.967"
       y1="0"
       x1="-181.967"><stop
         id="stop853"
         offset="0"
         style="stop-opacity:1;stop-color:#656263" /><stop
         id="stop855"
         offset="1"
         style="stop-opacity:1;stop-color:#656263" /></linearGradient><clipPath
       id="clipPath867"
       clipPathUnits="userSpaceOnUse"><path
         inkscape:connector-curvature="0"
         id="path865"
         d="m 480.195,1841.09 v -517.52 c -0.199,-34.42 -5.023,-63.81 -14.699,-88.19 -9.48,-24.36 -22.437,-44.09 -38.875,-59.36 -16.445,-15.09 -35.191,-26.31 -56.082,-33.46 -20.891,-6.97 -42.734,-10.45 -65.559,-10.45 -22.824,0 -44.683,3.48 -65.558,10.45 -20.891,7.15 -39.453,18.37 -56.082,33.46 -16.438,15.27 -29.395,35 -38.875,59.36 -9.664,24.38 -14.512,53.77 -14.699,88.19 v 517.52 H 2.12891 v -517.52 c 0.18359,-49.7 8.30859,-93.8 23.79299,-132.48 15.6601,-38.67 37.3164,-71.36 64.9648,-98.05 27.6643,-26.68 59.7653,-46.99 96.3163,-60.71 36.555,-13.93 75.813,-20.9 117.777,-20.9 41.965,0 81.418,6.97 117.77,20.9 36.559,13.72 68.66,34.03 96.313,60.71 27.656,26.69 49.316,59.38 64.976,98.05 15.668,38.68 23.602,82.78 23.797,132.48 v 517.52 z m 1142.935,0 v -587.14 l -452.53,587.14 h -98.63 v -812.25 h 127.64 v 585.99 l 453.7,-585.99 h 97.47 v 812.25 z m 719.42,0 h -127.64 v -812.25 h 127.64 z m 1282.19,-406.12 c -0.19,49.31 -7.73,95.33 -22.42,137.89 -14.89,42.73 -35.41,81.03 -61.7,115.44 -26.49,34.24 -57.24,63.64 -92.26,88.2 -35.19,24.55 -73.09,43.32 -114.09,56.46 -41,12.97 -83.36,19.54 -127.25,19.74 -43.91,-0.2 -86.25,-6.77 -127.25,-19.74 -40.81,-13.14 -78.91,-31.91 -114.11,-56.46 -35,-24.56 -65.75,-53.96 -92.05,-88.2 -26.5,-34.41 -47,-72.71 -61.88,-115.44 -14.71,-42.56 -22.25,-88.58 -22.45,-137.89 0.2,-49.32 7.74,-95.34 22.45,-137.89 14.88,-42.55 35.38,-81.04 61.88,-115.45 26.3,-34.24 57.05,-63.63 92.05,-88.2 35.2,-24.55 73.3,-43.32 114.11,-56.28 41,-13.15 83.34,-19.72 127.25,-19.92 35,0 69.23,4.27 102.5,12.77 33.46,8.51 64.98,20.89 94.76,37.13 l 30.16,-38.29 h 150.86 l -84.71,107.9 c 25.33,24.38 47.18,52.04 65.75,82.8 18.56,30.74 32.87,64.19 42.93,100.16 10.25,36.17 15.28,74.65 15.47,115.27 z m -417.72,-297.06 c -37.72,0.2 -73.68,7.55 -107.72,21.86 -34.05,14.51 -64.41,35 -91.09,61.3 -26.69,26.49 -47.77,57.82 -63.05,93.99 -15.47,36.36 -23.2,76.2 -23.59,119.91 0.39,43.7 8.12,83.73 23.59,119.91 15.28,36.15 36.36,67.49 63.05,93.98 26.68,26.3 57.04,46.8 91.09,61.3 34.04,14.32 70,21.66 107.72,21.86 37.69,-0.2 73.68,-7.54 107.72,-21.86 34.22,-14.5 64.59,-35 91.08,-61.3 26.69,-26.49 47.77,-57.83 63.04,-93.98 15.48,-36.18 23.41,-76.21 23.61,-119.91 -0.2,-39.07 -6.59,-75.24 -19.34,-108.69 -12.57,-33.27 -29.59,-62.86 -51.45,-88.57 l -112.55,143.88 h -150.85 l 169.42,-215.82 c -18.57,-9.29 -38.1,-16.25 -58.61,-20.89 -20.3,-4.65 -40.99,-6.97 -62.07,-6.97 z m 1342.53,703.18 v -517.52 c -0.21,-34.42 -5.03,-63.81 -14.71,-88.19 -9.47,-24.36 -22.43,-44.09 -38.87,-59.36 -16.44,-15.09 -35.19,-26.31 -56.08,-33.46 -20.89,-6.97 -42.74,-10.45 -65.56,-10.45 -22.83,0 -44.68,3.48 -65.56,10.45 -20.89,7.15 -39.45,18.37 -56.08,33.46 -16.44,15.27 -29.4,35 -38.87,59.36 -9.67,24.38 -14.52,53.77 -14.71,88.19 v 517.52 h -127.63 v -517.52 c 0.19,-49.7 8.31,-93.8 23.79,-132.48 15.66,-38.67 37.32,-71.36 64.97,-98.05 27.66,-26.68 59.76,-46.99 96.31,-60.71 36.56,-13.93 75.81,-20.9 117.78,-20.9 41.96,0 81.42,6.97 117.77,20.9 36.56,13.72 68.66,34.03 96.31,60.71 27.66,26.69 49.32,59.38 64.98,98.05 15.67,38.68 23.6,82.78 23.79,132.48 v 517.52 z m 719.41,-693.89 v 232.07 h 275 v 116.03 h -275 v 227.43 h 357.39 v 118.36 h -485.03 v -812.25 h 495.47 v 118.36 z" /></clipPath><linearGradient
       id="linearGradient873"
       spreadMethod="pad"
       gradientTransform="matrix(9.76447,-2.15758,2.15758,9.76447,2819.46,1432.07)"
       gradientUnits="userSpaceOnUse"
       y2="0"
       x2="234.472"
       y1="0"
       x1="-234.472"><stop
         id="stop869"
         offset="0"
         style="stop-opacity:1;stop-color:#656263" /><stop
         id="stop871"
         offset="1"
         style="stop-opacity:1;stop-color:#656263" /></linearGradient><clipPath
       id="clipPath883"
       clipPathUnits="userSpaceOnUse"><path
         inkscape:connector-curvature="0"
         id="path881"
         d="m 1197.62,76.2773 -32.13,34.5467 c -21.56,-17.8084 -45.11,-31.3279 -70.95,-40.5662 -25.83,-9.375 -52.46,-14.0625 -80.04,-14.0625 -24.098,0 -47.656,3.8945 -70.816,11.3867 -23.02,7.4961 -44.707,18.336 -64.918,32.527 -20.086,14.051 -37.883,31.055 -53.278,50.864 -15.394,19.672 -27.441,41.902 -36.273,66.531 -8.707,24.629 -13.121,51.137 -13.25,79.641 0.129,28.515 4.543,55.019 13.25,79.656 8.832,24.625 20.879,46.851 36.273,66.66 15.395,19.672 33.192,36.668 53.278,50.727 20.211,14.199 41.898,25.039 64.918,32.527 23.16,7.496 46.718,11.383 70.816,11.383 17.94,0 35.73,-2.145 53.4,-6.293 17.55,-4.149 34.55,-10.305 50.87,-18.473 16.33,-8.035 31.6,-18.07 45.92,-29.852 l 31.33,36.145 c -25.84,21.414 -54.49,37.883 -85.81,49.258 -31.46,11.519 -64.65,17.269 -99.73,17.41 -28.773,-0.141 -57.027,-4.688 -84.601,-13.797 -27.711,-9.098 -53.539,-22.215 -77.77,-39.215 -24.226,-17.008 -45.64,-37.347 -64.117,-61.176 -18.476,-23.691 -32.933,-50.332 -43.375,-79.785 -10.566,-29.445 -15.929,-61.164 -16.058,-95.175 0.129,-33.997 5.492,-65.719 16.058,-95.172 10.442,-29.446 24.899,-56.086 43.375,-79.782 18.477,-23.8277 39.891,-44.1715 64.117,-61.1715 24.231,-16.9961 50.059,-30.1172 77.77,-39.2187 27.574,-9.1055 55.828,-13.66017 84.601,-13.78908 35.47,0.12891 69.07,6.15628 100.79,17.93748 31.74,11.7813 60.51,28.5117 86.35,50.3281 z M 1551.8,63.4258 V 275.461 h 212.03 v 45.785 H 1551.8 v 209.625 h 269.86 v 47.387 H 1502 V 16.0469 h 326.89 V 63.4258 Z M 2540.49,578.258 V 106 l -361.42,472.258 h -37.75 V 16.0469 h 49.79 V 487.5 L 2552.54,16.0469 h 37.75 V 578.258 Z m 730.87,0 H 2898.7 v -47.387 h 161.43 V 16.0469 h 49.79 V 530.871 h 161.44 z M 3982.95,16.0469 3825.53,231.293 c 27.85,7.625 51.41,19.543 70.68,35.734 19.15,16.203 33.74,35.61 43.64,58.368 9.9,22.757 14.99,47.921 14.99,75.363 0,25.027 -4.41,48.324 -12.98,69.738 -8.7,21.418 -21.42,40.297 -38.15,56.356 -16.74,16.066 -37.35,28.64 -61.71,37.753 -24.36,8.961 -52.34,13.52 -83.93,13.653 h -178.3 V 16.0469 h 49.79 V 223.258 h 128.51 c 3.22,0 6.42,0 9.63,0.129 3.22,0 6.43,0.269 9.64,0.676 L 3927.54,16.0469 Z M 3629.56,530.871 h 128.51 c 29.85,0 55.81,-5.226 77.77,-15.258 21.96,-10.179 38.95,-25.035 50.87,-44.316 12.04,-19.402 18.2,-42.824 18.33,-70.539 -0.13,-27.715 -6.29,-51.27 -18.33,-70.942 -11.92,-19.546 -28.91,-34.543 -50.87,-44.984 -21.96,-10.437 -47.92,-15.66 -77.77,-15.793 H 3629.56 Z M 4333.13,63.4258 V 275.461 h 212.03 v 45.785 h -212.03 v 209.625 h 269.85 v 47.387 H 4283.33 V 16.0469 h 326.88 v 47.3789 z" /></clipPath><linearGradient
       id="linearGradient889"
       spreadMethod="pad"
       gradientTransform="matrix(9.76447,-2.15758,2.15758,9.76447,2667.38,297.152)"
       gradientUnits="userSpaceOnUse"
       y2="0"
       x2="160.675"
       y1="0"
       x1="-160.675"><stop
         id="stop885"
         offset="0"
         style="stop-opacity:1;stop-color:#656263" /><stop
         id="stop887"
         offset="1"
         style="stop-opacity:1;stop-color:#656263" /></linearGradient><clipPath
       clipPathUnits="userSpaceOnUse"
       id="clipPath842"><rect
         style="opacity:0.853;fill:none;fill-opacity:1;stroke:#e54600;stroke-width:57.69000244;stroke-miterlimit:4;stroke-dasharray:none;stroke-dashoffset:0;stroke-opacity:1;paint-order:normal"
         id="rect844"
         width="4064.4873"
         height="3808.6804"
         x="852.68976"
         y="-6324.1152"
         transform="scale(1,-1)" /></clipPath></defs><sodipodi:namedview
     inkscape:current-layer="g841"
     inkscape:window-maximized="1"
     inkscape:window-y="55"
     inkscape:window-x="0"
     inkscape:cy="461.68006"
     inkscape:cx="-122.24658"
     inkscape:zoom="0.52774185"
     showgrid="false"
     id="namedview835"
     inkscape:window-height="1329"
     inkscape:window-width="2560"
     inkscape:pageshadow="2"
     inkscape:pageopacity="0"
     guidetolerance="10"
     gridtolerance="10"
     objecttolerance="10"
     borderopacity="1"
     inkscape:document-rotation="0"
     bordercolor="#666666"
     pagecolor="#ffffff" /><g
     transform="matrix(1.3333333,0,0,-1.3333333,0,846.66667)"
     inkscape:label="ink_ext_XXXXXX"
     inkscape:groupmode="layer"
     id="g841"><g
       id="g1804"><g
         transform="matrix(6.8716105,0,0,-6.8716105,95.574666,396.99702)"
         id="g1004"
         style="fill:#a3a3a3;fill-opacity:1">
	<g
   id="g1002"
   style="fill:#a3a3a3;fill-opacity:1">
		<rect
   id="rect976"
   height="4.0890002"
   width="4.5960002"
   y="14.626"
   x="12.858"
   style="fill:#a3a3a3;fill-opacity:1" />
		<rect
   id="rect978"
   height="4.0890002"
   width="4.5949998"
   y="14.626"
   x="18.996"
   style="fill:#a3a3a3;fill-opacity:1" />
		<rect
   id="rect980"
   height="4.0890002"
   width="4.5960002"
   y="14.626"
   x="25.128"
   style="fill:#a3a3a3;fill-opacity:1" />
		<rect
   id="rect982"
   height="4.086"
   width="4.5949998"
   y="20.084"
   x="6.724"
   style="fill:#a3a3a3;fill-opacity:1" />
		<rect
   id="rect984"
   height="4.086"
   width="4.5960002"
   y="20.084"
   x="12.858"
   style="fill:#a3a3a3;fill-opacity:1" />
		<rect
   id="rect986"
   height="4.086"
   width="4.5949998"
   y="20.084"
   x="18.996"
   style="fill:#a3a3a3;fill-opacity:1" />
		<rect
   id="rect988"
   height="4.086"
   width="4.5960002"
   y="20.084"
   x="25.128"
   style="fill:#a3a3a3;fill-opacity:1" />
		<rect
   id="rect990"
   height="4.086"
   width="4.5949998"
   y="25.540001"
   x="6.724"
   style="fill:#a3a3a3;fill-opacity:1" />
		<rect
   id="rect992"
   height="4.086"
   width="4.5960002"
   y="25.540001"
   x="12.858"
   style="fill:#a3a3a3;fill-opacity:1" />
		<rect
   id="rect994"
   height="4.086"
   width="4.5949998"
   y="25.540001"
   x="18.996"
   style="fill:#a3a3a3;fill-opacity:1" />
		<rect
   id="rect996"
   height="4.086"
   width="4.5960002"
   y="25.540001"
   x="25.128"
   style="fill:#a3a3a3;fill-opacity:1" />
		<path
   id="path998"
   d="m 31.974,32.198 c 0,0.965 -0.785,1.75 -1.75,1.75 h -24 c -0.965,0 -1.75,-0.785 -1.75,-1.75 V 12.099 h -2.5 v 20.099 c 0,2.343 1.907,4.25 4.25,4.25 h 24 c 2.344,0 4.25,-1.907 4.25,-4.25 V 12.099 h -2.5 z"
   inkscape:connector-curvature="0"
   style="fill:#a3a3a3;fill-opacity:1" />
		<path
   id="path1000"
   d="M 30.224,3.948 H 29.126 V 2.75 C 29.126,1.233 27.929,0 26.456,0 c -1.474,0 -2.67,1.233 -2.67,2.75 v 1.197 h -2.74 V 2.75 C 21.046,1.233 19.849,0 18.376,0 c -1.473,0 -2.67,1.233 -2.67,2.75 v 1.197 h -2.74 V 2.75 C 12.966,1.233 11.769,0 10.296,0 8.823,0 7.626,1.233 7.626,2.75 V 3.947 H 6.224 c -2.343,0 -4.25,1.907 -4.25,4.25 v 2 h 2.5 27.5 2.5 v -2 c 0,-2.342 -1.906,-4.249 -4.25,-4.249 z M 11.466,7.646 c 0,0.689 -0.525,1.25 -1.17,1.25 -0.645,0 -1.17,-0.561 -1.17,-1.25 V 2.75 c 0,-0.689 0.525,-1.25 1.17,-1.25 0.645,0 1.17,0.561 1.17,1.25 z m 8.08,0 c 0,0.689 -0.525,1.25 -1.17,1.25 -0.645,0 -1.17,-0.561 -1.17,-1.25 V 2.75 c 0,-0.689 0.525,-1.25 1.17,-1.25 0.645,0 1.17,0.561 1.17,1.25 z m 8.08,0 c 0,0.689 -0.525,1.25 -1.17,1.25 -0.646,0 -1.17,-0.561 -1.17,-1.25 V 2.75 c 0,-0.689 0.524,-1.25 1.17,-1.25 0.645,0 1.17,0.561 1.17,1.25 z"
   inkscape:connector-curvature="0"
   style="fill:#a3a3a3;fill-opacity:1" />
	</g>
</g><g
         transform="matrix(6.8716105,0,0,-6.8716105,95.574666,396.99702)"
         id="g1006"
         style="fill:#a3a3a3;fill-opacity:1">
</g><g
         transform="matrix(6.8716105,0,0,-6.8716105,95.574666,396.99702)"
         id="g1008"
         style="fill:#a3a3a3;fill-opacity:1">
</g><g
         transform="matrix(6.8716105,0,0,-6.8716105,95.574666,396.99702)"
         id="g1010"
         style="fill:#a3a3a3;fill-opacity:1">
</g><g
         transform="matrix(6.8716105,0,0,-6.8716105,95.574666,396.99702)"
         id="g1012"
         style="fill:#a3a3a3;fill-opacity:1">
</g><g
         transform="matrix(6.8716105,0,0,-6.8716105,95.574666,396.99702)"
         id="g1014"
         style="fill:#a3a3a3;fill-opacity:1">
</g><g
         transform="matrix(6.8716105,0,0,-6.8716105,95.574666,396.99702)"
         id="g1016"
         style="fill:#a3a3a3;fill-opacity:1">
</g><g
         transform="matrix(6.8716105,0,0,-6.8716105,95.574666,396.99702)"
         id="g1018"
         style="fill:#a3a3a3;fill-opacity:1">
</g><g
         transform="matrix(6.8716105,0,0,-6.8716105,95.574666,396.99702)"
         id="g1020"
         style="fill:#a3a3a3;fill-opacity:1">
</g><g
         transform="matrix(6.8716105,0,0,-6.8716105,95.574666,396.99702)"
         id="g1022"
         style="fill:#a3a3a3;fill-opacity:1">
</g><g
         transform="matrix(6.8716105,0,0,-6.8716105,95.574666,396.99702)"
         id="g1024"
         style="fill:#a3a3a3;fill-opacity:1">
</g><g
         transform="matrix(6.8716105,0,0,-6.8716105,95.574666,396.99702)"
         id="g1026"
         style="fill:#a3a3a3;fill-opacity:1">
</g><g
         transform="matrix(6.8716105,0,0,-6.8716105,95.574666,396.99702)"
         id="g1028"
         style="fill:#a3a3a3;fill-opacity:1">
</g><g
         transform="matrix(6.8716105,0,0,-6.8716105,95.574666,396.99702)"
         id="g1030"
         style="fill:#a3a3a3;fill-opacity:1">
</g><g
         transform="matrix(6.8716105,0,0,-6.8716105,95.574666,396.99702)"
         id="g1032"
         style="fill:#a3a3a3;fill-opacity:1">
</g><g
         transform="matrix(6.8716105,0,0,-6.8716105,95.574666,396.99702)"
         id="g1034"
         style="fill:#a3a3a3;fill-opacity:1">
</g><rect
         transform="scale(1,-1)"
         y="-258.98761"
         x="183.92982"
         height="28.077404"
         width="31.581926"
         id="rect1075"
         style="opacity:1;fill:#105faf;fill-opacity:1;stroke:none;stroke-width:7.14802647;stroke-miterlimit:4;stroke-dasharray:none;stroke-dashoffset:0;stroke-opacity:1;paint-order:normal" /><ellipse
         ry="164.14278"
         rx="164.85335"
         transform="scale(1,-1)"
         cy="-431.91629"
         cx="357.48062"
         id="path1123"
         style="opacity:1;fill:#ffffff;fill-opacity:1;stroke:none;stroke-width:5.50740623;stroke-miterlimit:4;stroke-dasharray:none;stroke-dashoffset:0;stroke-opacity:1;paint-order:normal" /><g
         transform="matrix(0.08817666,0,0,0.08877899,104.74944,29.112753)"
         id="g847"
         clip-path="url(#clipPath851)"
         style="fill:#105faf;fill-opacity:1"><path
           d="m 3201.88,6187.14 c 455.08,-338.3 271,-810.87 596.69,-1150.94 82.72,-86.13 178.31,-129.66 275.57,-194.99 226.65,-152.14 -115.53,-196.6 -72.5,-328.29 16.13,-49.47 53.28,-107.78 100.21,-132.81 48.28,-25.73 61.87,-71.25 37.29,-122.21 -26.17,-54.28 -88.91,-83.84 -147.78,-93.64 57.92,-5.99 100.14,-32.17 112.78,-90.99 19.59,-91.31 -104.97,-101.7 -104.1,-197.16 1.16,-132.41 192.75,-262.88 61.96,-394.46 -191.24,-192.41 -545.03,-56.58 -785.11,-95.87 -339.16,-55.59 -414.78,-286.82 -578.73,-540.57 -153.71,14.2 -306.97,50.02 -455.37,109.35 l 0.1,5.66 c 0,102.18 -82.88,185.06 -185.08,185.06 -102.2,0 -185.08,-82.88 -185.08,-185.06 0,-102.2 82.88,-185.1 185.08,-185.1 55.26,0 104.86,24.24 138.79,62.67 128.99,-51.9 267,-89.65 412.97,-110.79 504.95,-73.15 991.45,69.06 1366.83,356.81 337.49,239.75 593.55,596.91 690.76,1037.08 82.34,372.76 38.11,744.41 -104.15,1071.25 -231.35,587.66 -762.52,1037.83 -1432,1134.8 -606.29,87.82 -1185.99,-134.18 -1578.66,-546.52 h -3.24 v -3.45 c -39.32,-41.54 -76.82,-84.95 -112.22,-130.2 l 1642.45,0.89 c 33.72,-45.5 87.8,-75 148.79,-75 102.19,0 185.07,82.89 185.07,185.09 0,102.19 -82.88,185.06 -185.07,185.06 -94.53,0 -172.51,-70.88 -183.69,-162.39 H 1736 c 361.76,326.51 860.27,496.87 1376.96,422.03 29.96,-4.35 59.59,-9.49 88.92,-15.31 z M 2678.59,3606.01 c 102.2,0 185.09,-82.88 185.09,-185.07 0,-102.2 -82.89,-185.1 -185.09,-185.1 -78.8,0 -146.11,49.29 -172.8,118.72 h -849.61 l 1.27,-1.35 -164.1,-1.52 c -176.5,212.06 -304.37,471.33 -374.28,736.88 l 55.48,-0.44 v 0.78 h 1786.44 c 26.1,70.56 94.01,120.91 173.65,120.91 102.2,0 185.08,-82.89 185.08,-185.07 0,-102.2 -82.88,-185.09 -185.08,-185.09 -77.97,0 -144.69,48.22 -171.95,116.49 H 1292.08 c 60.44,-166.77 145.03,-326.71 252.24,-468.83 h 961.48 c 26.7,69.41 93.99,118.69 172.79,118.69 z m 972.5,1153.19 c 102.2,0 185.08,-82.88 185.08,-185.07 0,-102.2 -82.88,-185.1 -185.08,-185.1 -78.81,0 -146.12,49.29 -172.81,118.72 l -2420.23,0.37 c -5.28,235.08 35.01,473.43 126.65,701.5 l 1652.23,-2.67 c 26.71,69.4 93.99,118.68 172.8,118.68 102.2,0 185.08,-82.88 185.08,-185.06 0,-102.2 -82.88,-185.09 -185.08,-185.09 -78.81,0 -146.12,49.27 -172.81,118.7 H 1269.2 c -48.18,-142.22 -75.68,-288.01 -84.04,-433.67 h 2293.13 c 26.7,69.41 93.99,118.69 172.8,118.69"
           style="fill:#105faf;fill-opacity:1;fill-rule:nonzero;stroke:none"
           id="path859"
           inkscape:connector-curvature="0" /></g></g></g></svg>